<svg xmlns="http://www.w3.org/2000/svg" viewBox="0 0 48 48" width="48" height="48">
  <path fill="currentColor" d="M11.5 1.25C13.8472 1.25 15.75 3.1528 15.75 5.5C15.75 5.6529 15.7417 5.8057 15.7253 5.9577L24.7634 7.6651C26.3342 7.9618 27.8047 8.6502 29.0388 9.6663L42.6745 20.8943C45.0967 22.8889 46.5 25.8622 46.5 29C46.5 31.381 45.6907 33.6914 44.2049 35.552C44.4379 36.6986 43.7532 37.8324 42.63 38.16L30.63 41.66C30.1817 41.7908 29.7038 41.7788 29.2626 41.6257L28.3438 42.6211C28.3479 42.6639 28.35 42.7069 28.35 42.75C28.35 43.4956 27.7456 44.1 27 44.1C26.2544 44.1 25.65 43.4956 25.65 42.75C25.65 42.5904 25.6783 42.432 25.7336 42.2822L24.7774 42.6868C24.5906 43.233 24.0772 43.6 23.5 43.6C22.7544 43.6 22.15 42.9956 22.15 42.25C22.15 41.7063 22.4761 41.2157 22.9775 41.0052L22.3294 41.0608C22.0744 41.4003 21.6746 41.6 21.25 41.6C20.5044 41.6 19.9 40.9956 19.9 40.25C19.9 39.5044 20.5044 38.9 21.25 38.9C21.5941 38.9 21.9252 39.0314 22.1757 39.2674L24.0726 39.1048L21.787 38.5969C21.5576 38.7615 21.2824 38.85 21 38.85C20.2544 38.85 19.65 38.2456 19.65 37.5C19.65 36.7544 20.2544 36.15 21 36.15C21.4884 36.15 21.9386 36.4138 22.1775 36.8397L28.1822 38.1741C28.4564 37.7981 28.8404 37.5165 29.2814 37.3678L16.5164 30.9073C15.7926 30.541 15.1588 30.0191 14.6604 29.379L13.5479 27.9502L11.779 32.6671C11.4777 33.4707 10.6751 33.9725 9.8207 33.8915L8.307 36.162C8.3356 36.2724 8.35 36.386 8.35 36.5C8.35 37.2456 7.7456 37.85 7 37.85C6.2544 37.85 5.65 37.2456 5.65 36.5C5.65 35.8281 6.1441 35.2584 6.8093 35.1635L7.5555 34.0442L5.5316 34.9242C5.3487 35.4768 4.8321 35.85 4.25 35.85C3.5044 35.85 2.9 35.2456 2.9 34.5C2.9 33.7544 3.5044 33.15 4.25 33.15C4.4447 33.15 4.6371 33.1921 4.8139 33.2734L6.3181 32.6194L4.4342 32.4745C4.1829 32.7155 3.8482 32.85 3.5 32.85C2.7544 32.85 2.15 32.2456 2.15 31.5C2.15 30.7544 2.7544 30.15 3.5 30.15C3.9204 30.15 4.3169 30.3459 4.5723 30.6798L8.3567 30.9709L10.8087 24.4324L4.4769 16.3006C3.5197 15.0713 3 13.5579 3 12C3 9.1967 4.6725 6.6637 7.2505 5.5626C7.2502 5.5417 7.25 5.5209 7.25 5.5C7.25 3.1528 9.1528 1.25 11.5 1.25ZM24.4258 40.8811L23.8031 40.9345C23.8972 40.9561 23.9887 40.9879 24.076 41.0291L24.4258 40.8811ZM11.5 3.25C10.2574 3.25 9.25 4.2574 9.25 5.5C9.25 6.7426 10.2574 7.75 11.5 7.75C12.7426 7.75 13.75 6.7426 13.75 5.5C13.75 4.2574 12.7426 3.25 11.5 3.25ZM10.9 4.4C11.5075 4.4 12 4.8925 12 5.5C12 6.1075 11.5075 6.6 10.9 6.6C10.2925 6.6 9.8 6.1075 9.8 5.5C9.8 4.8925 10.2925 4.4 10.9 4.4ZM5.4133 11.5071C5.1207 11.3515 4.7574 11.4626 4.6018 11.7552C4.4463 12.0477 4.5573 12.411 4.8499 12.5666C6.7435 13.5735 8.8554 14.1 11 14.1C12.3747 14.1 13.7407 13.8836 15.0481 13.4588C15.3633 13.3564 15.5357 13.0179 15.4333 12.7028C15.3309 12.3876 14.9925 12.2152 14.6773 12.3176C13.4897 12.7035 12.2487 12.9 11 12.9C9.0518 12.9 7.1334 12.4217 5.4133 11.5071Z"/>
</svg>
